<?xml version="1.0" encoding="UTF-8" standalone="no"?>
<!-- Created with Inkscape (http://www.inkscape.org/) -->

<svg
   width="12.293384mm"
   height="12.293385mm"
   viewBox="0 0 12.293384 12.293384"
   version="1.1"
   id="svg1"
   inkscape:version="1.3.2 (091e20e, 2023-11-25, custom)"
   sodipodi:docname="Attack.svg"
   xmlns:inkscape="http://www.inkscape.org/namespaces/inkscape"
   xmlns:sodipodi="http://sodipodi.sourceforge.net/DTD/sodipodi-0.dtd"
   xmlns="http://www.w3.org/2000/svg"
   xmlns:svg="http://www.w3.org/2000/svg">
  <sodipodi:namedview
     id="namedview1"
     pagecolor="#ffffff"
     bordercolor="#000000"
     borderopacity="0.25"
     inkscape:showpageshadow="2"
     inkscape:pageopacity="0.0"
     inkscape:pagecheckerboard="0"
     inkscape:deskcolor="#d1d1d1"
     inkscape:document-units="mm"
     inkscape:zoom="0.73049944"
     inkscape:cx="-469.54177"
     inkscape:cy="-101.30056"
     inkscape:window-width="1920"
     inkscape:window-height="991"
     inkscape:window-x="-9"
     inkscape:window-y="-9"
     inkscape:window-maximized="1"
     inkscape:current-layer="layer1" />
  <defs
     id="defs1">
    <rect
       x="20.176216"
       y="18.763374"
       width="106.13486"
       height="105.1018"
       id="rect53" />
    <rect
       x="20.176216"
       y="18.763374"
       width="106.13486"
       height="105.1018"
       id="rect61" />
    <rect
       x="20.176216"
       y="18.763374"
       width="106.13486"
       height="105.1018"
       id="rect68" />
    <rect
       x="20.176216"
       y="18.763374"
       width="106.13486"
       height="105.1018"
       id="rect71" />
    <rect
       x="42.136654"
       y="49.74522"
       width="54.596233"
       height="58.904041"
       id="rect18-7" />
    <rect
       x="20.176216"
       y="18.763374"
       width="106.13486"
       height="105.1018"
       id="rect53-1" />
    <rect
       x="20.176216"
       y="18.763374"
       width="106.13486"
       height="105.1018"
       id="rect35-5" />
    <rect
       x="20.176216"
       y="18.763374"
       width="106.13486"
       height="105.1018"
       id="rect51-3" />
    <rect
       x="20.176216"
       y="18.763374"
       width="516.72589"
       height="94.123428"
       id="rect39-3" />
    <rect
       x="57.000401"
       y="252.78439"
       width="217.09718"
       height="102.60072"
       id="rect40-14" />
    <rect
       x="20.176216"
       y="18.763374"
       width="516.72589"
       height="94.123428"
       id="rect49-6" />
    <rect
       x="20.176216"
       y="18.763374"
       width="106.13486"
       height="105.1018"
       id="rect52-5" />
    <rect
       x="20.176216"
       y="18.763374"
       width="106.13486"
       height="105.1018"
       id="rect250" />
    <rect
       x="20.176216"
       y="18.763374"
       width="106.13486"
       height="105.1018"
       id="rect255" />
    <rect
       x="20.176216"
       y="18.763374"
       width="106.13486"
       height="105.1018"
       id="rect258" />
  </defs>
  <g
     inkscape:label="Layer 1"
     inkscape:groupmode="layer"
     id="layer1"
     transform="translate(-229.12914,-175.41874)">
    <g
       id="g258"
       transform="matrix(1.2908975,0,0,1.2908975,172.61728,-76.531078)">
      <path
         d="m 43.777189,195.17415 h 9.523129 v 9.52313 h -9.523129 z"
         fill="#000000"
         fill-opacity="1"
         id="path256"
         style="stroke-width:0.0185999" />
      <g
         class=""
         id="g257"
         transform="matrix(0.01859986,0,0,0.01859986,43.777189,195.17415)"
         style="fill:#cdcdcd;fill-opacity:1">
        <path
           d="m 246.78,18.656 v 101.22 c 7.988,0.266 16.003,0.267 24,0 V 18.655 h -24 z m -72.155,110.406 v 30.813 h 168.313 v -30.813 c -55.755,12.73 -113.104,12.604 -168.313,0 z m -150.28,35.063 9.343,37.594 132.187,8.093 9.406,0.562 -0.655,9.406 c -2.594,38.077 5.257,78.673 25.563,112.44 l 7.625,-146.47 -183.47,-21.625 z m 463.186,0 -177.842,20.97 7.187,137.843 c 16.457,-31.775 22.736,-68.503 20.375,-103.157 l -0.625,-9.405 9.375,-0.563 132.188,-8.093 9.343,-37.595 z M 226.907,178.563 216.25,383.188 v 44.187 l 44.375,66.53 43.03,-65.342 -13,-250 h -22.53 V 429.5 H 249.437 V 178.562 h -22.53 z M 38.186,220.72 c 3.52,11.234 8.043,23.026 13.345,34.936 l 104.5,-8.562 c -0.358,-6.42 -0.452,-12.835 -0.28,-19.188 L 38.187,220.72 Z m 435.502,0 -117.563,7.186 c 0.172,6.353 0.077,12.768 -0.28,19.188 l 104.5,8.562 c 5.3,-11.91 9.825,-23.702 13.342,-34.937 z m -315.844,45 -97.72,8 c 5.446,10.777 11.426,21.472 17.782,31.81 l 84.063,-18.28 c -1.735,-7.117 -3.12,-14.322 -4.126,-21.53 z m 196.187,0 c -1.003,7.207 -2.36,14.414 -4.092,21.53 l 84.03,18.28 c 6.357,-10.338 12.338,-21.033 17.782,-31.81 z M 167.19,305.25 88.75,322.313 c 6.694,9.8 13.67,19.05 20.75,27.468 l 64.938,-26.342 c -2.725,-5.955 -5.143,-12.023 -7.25,-18.188 z m 177.5,0 c -2.107,6.166 -4.527,12.232 -7.25,18.188 l 64.937,26.343 c 7.08,-8.415 14.056,-17.666 20.75,-27.467 l -78.438,-17.063 z"
           fill="#ffffff"
           fill-opacity="1"
           id="path257"
           style="fill:#cdcdcd;fill-opacity:1" />
      </g>
      <text
         xml:space="preserve"
         transform="matrix(0.1231591,0,0,0.1231591,39.523635,192.75244)"
         id="text258"
         style="font-size:85.3333px;line-height:1;font-family:'Nimbus Roman No9 L';-inkscape-font-specification:'Nimbus Roman No9 L';text-decoration-color:#000000;white-space:pre;shape-inside:url(#rect258);display:inline;fill:#ffffff;fill-opacity:1;stroke:#000000;stroke-width:1.39842;stroke-dasharray:none;stroke-opacity:1"
         x="126.81245"
         y="0"><tspan
           x="51.90984"
           y="92.096975"
           id="tspan4"><tspan
             style="font-family:'MS Gothic';-inkscape-font-specification:'MS Gothic';text-align:center;text-anchor:middle"
             id="tspan3">X</tspan></tspan></text>
    </g>
  </g>
</svg>
