<?xml version="1.0" encoding="UTF-8" standalone="no"?>
<!-- Created with Inkscape (http://www.inkscape.org/) -->

<svg
   width="12.293383mm"
   height="12.293385mm"
   viewBox="0 0 12.293383 12.293384"
   version="1.1"
   id="svg1"
   inkscape:version="1.3.2 (091e20e, 2023-11-25, custom)"
   sodipodi:docname="HP.svg"
   xmlns:inkscape="http://www.inkscape.org/namespaces/inkscape"
   xmlns:sodipodi="http://sodipodi.sourceforge.net/DTD/sodipodi-0.dtd"
   xmlns="http://www.w3.org/2000/svg"
   xmlns:svg="http://www.w3.org/2000/svg">
  <sodipodi:namedview
     id="namedview1"
     pagecolor="#ffffff"
     bordercolor="#000000"
     borderopacity="0.25"
     inkscape:showpageshadow="2"
     inkscape:pageopacity="0.0"
     inkscape:pagecheckerboard="0"
     inkscape:deskcolor="#d1d1d1"
     inkscape:document-units="mm"
     inkscape:zoom="0.73049944"
     inkscape:cx="-306.63952"
     inkscape:cy="-158.79547"
     inkscape:window-width="1920"
     inkscape:window-height="991"
     inkscape:window-x="-9"
     inkscape:window-y="-9"
     inkscape:window-maximized="1"
     inkscape:current-layer="layer1" />
  <defs
     id="defs1">
    <rect
       x="20.176216"
       y="18.763374"
       width="106.13486"
       height="105.1018"
       id="rect53" />
    <rect
       x="20.176216"
       y="18.763374"
       width="106.13486"
       height="105.1018"
       id="rect61" />
    <rect
       x="20.176216"
       y="18.763374"
       width="106.13486"
       height="105.1018"
       id="rect68" />
    <rect
       x="20.176216"
       y="18.763374"
       width="106.13486"
       height="105.1018"
       id="rect71" />
    <rect
       x="42.136654"
       y="49.74522"
       width="54.596233"
       height="58.904041"
       id="rect18-7" />
    <rect
       x="20.176216"
       y="18.763374"
       width="106.13486"
       height="105.1018"
       id="rect53-1" />
    <rect
       x="20.176216"
       y="18.763374"
       width="106.13486"
       height="105.1018"
       id="rect35-5" />
    <rect
       x="20.176216"
       y="18.763374"
       width="106.13486"
       height="105.1018"
       id="rect51-3" />
    <rect
       x="20.176216"
       y="18.763374"
       width="516.72589"
       height="94.123428"
       id="rect39-3" />
    <rect
       x="57.000401"
       y="252.78439"
       width="217.09718"
       height="102.60072"
       id="rect40-14" />
    <rect
       x="20.176216"
       y="18.763374"
       width="516.72589"
       height="94.123428"
       id="rect49-6" />
    <rect
       x="20.176216"
       y="18.763374"
       width="106.13486"
       height="105.1018"
       id="rect52-5" />
    <rect
       x="20.176216"
       y="18.763374"
       width="106.13486"
       height="105.1018"
       id="rect250" />
  </defs>
  <g
     inkscape:label="Layer 1"
     inkscape:groupmode="layer"
     id="layer1"
     transform="translate(-186.00208,-190.5)">
    <g
       id="g249"
       transform="matrix(1.2908975,0,0,1.2908975,129.49022,-33.925025)">
      <g
         id="g73"
         transform="matrix(0.7238313,0,0,0.7238313,-28.012538,94.715214)">
        <path
           d="m 99.180192,109.33033 h 13.156558 v 13.15656 H 99.180192 Z"
           fill="#000000"
           fill-opacity="1"
           id="path71"
           style="stroke-width:0.0256964" />
        <g
           class=""
           id="g72"
           transform="matrix(0.0256964,0,0,0.0256964,99.180192,109.33033)"
           style="fill:#e55656;fill-opacity:1">
          <path
             d="m 480.25,156.355 c 0,161.24 -224.25,324.43 -224.25,324.43 0,0 -224.25,-163.19 -224.25,-324.43 0,-91.41 70.63,-125.13 107.77,-125.13 77.65,0 116.48,65.72 116.48,65.72 0,0 38.83,-65.73 116.48,-65.73 37.14,0.01 107.77,33.72 107.77,125.14 z"
             fill="#ffffff"
             fill-opacity="1"
             id="path72"
             style="fill:#e55656;fill-opacity:1" />
        </g>
      </g>
      <text
         xml:space="preserve"
         transform="matrix(0.1231591,0,0,0.1231591,39.523635,171.3029)"
         id="text249"
         style="font-size:85.3333px;line-height:1;font-family:'Nimbus Roman No9 L';-inkscape-font-specification:'Nimbus Roman No9 L';text-decoration-color:#000000;white-space:pre;shape-inside:url(#rect250);display:inline;fill:#ffffff;fill-opacity:1;stroke:#000000;stroke-width:1.39842;stroke-dasharray:none;stroke-opacity:1"
         x="126.81245"
         y="0"><tspan
           x="51.90984"
           y="92.096975"
           id="tspan4"><tspan
             style="font-family:'MS Gothic';-inkscape-font-specification:'MS Gothic';text-align:center;text-anchor:middle"
             id="tspan3">X</tspan></tspan></text>
    </g>
  </g>
</svg>
