<?xml version="1.0" encoding="UTF-8" standalone="no"?>
<!-- Created with Inkscape (http://www.inkscape.org/) -->

<svg
   width="12.293383mm"
   height="12.293378mm"
   viewBox="0 0 12.293383 12.293377"
   version="1.1"
   id="svg1"
   inkscape:version="1.3.2 (091e20e, 2023-11-25, custom)"
   sodipodi:docname="Movement.svg"
   xmlns:inkscape="http://www.inkscape.org/namespaces/inkscape"
   xmlns:sodipodi="http://sodipodi.sourceforge.net/DTD/sodipodi-0.dtd"
   xmlns="http://www.w3.org/2000/svg"
   xmlns:svg="http://www.w3.org/2000/svg">
  <sodipodi:namedview
     id="namedview1"
     pagecolor="#ffffff"
     bordercolor="#000000"
     borderopacity="0.25"
     inkscape:showpageshadow="2"
     inkscape:pageopacity="0.0"
     inkscape:pagecheckerboard="0"
     inkscape:deskcolor="#d1d1d1"
     inkscape:document-units="mm"
     inkscape:zoom="0.73049944"
     inkscape:cx="-249.14461"
     inkscape:cy="-39.698867"
     inkscape:window-width="1920"
     inkscape:window-height="991"
     inkscape:window-x="-9"
     inkscape:window-y="-9"
     inkscape:window-maximized="1"
     inkscape:current-layer="layer1" />
  <defs
     id="defs1">
    <rect
       x="20.176216"
       y="18.763374"
       width="106.13486"
       height="105.1018"
       id="rect53" />
    <rect
       x="20.176216"
       y="18.763374"
       width="106.13486"
       height="105.1018"
       id="rect61" />
    <rect
       x="20.176216"
       y="18.763374"
       width="106.13486"
       height="105.1018"
       id="rect68" />
    <rect
       x="20.176216"
       y="18.763374"
       width="106.13486"
       height="105.1018"
       id="rect71" />
    <rect
       x="42.136654"
       y="49.74522"
       width="54.596233"
       height="58.904041"
       id="rect18-7" />
    <rect
       x="20.176216"
       y="18.763374"
       width="106.13486"
       height="105.1018"
       id="rect53-1" />
    <rect
       x="20.176216"
       y="18.763374"
       width="106.13486"
       height="105.1018"
       id="rect35-5" />
    <rect
       x="20.176216"
       y="18.763374"
       width="106.13486"
       height="105.1018"
       id="rect51-3" />
    <rect
       x="20.176216"
       y="18.763374"
       width="516.72589"
       height="94.123428"
       id="rect39-3" />
    <rect
       x="57.000401"
       y="252.78439"
       width="217.09718"
       height="102.60072"
       id="rect40-14" />
    <rect
       x="20.176216"
       y="18.763374"
       width="516.72589"
       height="94.123428"
       id="rect49-6" />
    <rect
       x="20.176216"
       y="18.763374"
       width="106.13486"
       height="105.1018"
       id="rect52-5" />
    <rect
       x="20.176216"
       y="18.763374"
       width="106.13486"
       height="105.1018"
       id="rect250" />
    <rect
       x="20.176216"
       y="18.763374"
       width="106.13486"
       height="105.1018"
       id="rect255" />
  </defs>
  <g
     inkscape:label="Layer 1"
     inkscape:groupmode="layer"
     id="layer1"
     transform="translate(-170.92082,-159.01458)">
    <g
       id="g255"
       transform="matrix(1.2908975,0,0,1.2908975,114.40896,-79.172831)">
      <g
         id="g252"
         transform="matrix(0.7238313,0,0,0.7238313,-28.012538,116.03742)">
        <path
           d="M 99.180192,94.601617 H 112.33675 V 107.75817 H 99.180192 Z"
           fill="#000000"
           fill-opacity="1"
           id="path250"
           style="stroke-width:0.0256964" />
        <g
           class=""
           id="g251"
           transform="matrix(0.0256964,0,0,0.0256964,99.180192,94.601617)"
           style="fill:#898989;fill-opacity:1">
          <path
             d="m 494.25,21.125 -164.53,1.25 c -15.463,27.984 -33.913,52.67 -54.163,75.8 6.012,1.497 12.073,2.995 18.027,4.497 l 13.69,3.453 -8.528,11.254 c -50.415,66.503 -44.632,142.087 -27.36,213.694 l -18.17,4.383 C 236.378,265.639 229.688,187.264 275.856,117.516 187.786,95.619 92.236,74.082 22.482,28.136 c -1.77,4.89 -1.01,10.187 2.262,17.23 2.427,5.222 6.516,11.043 12.14,17.117 53.162,37.938 130.458,65.946 189.778,75.168 l -2.87,18.467 C 161.942,146.502 84.15,118.721 27.756,78.891 c 0.61,5.953 2.61,12.393 6.387,19.36 6.918,12.758 19.275,26.49 35.7,38.907 0.84,0.635 1.697,1.265 2.557,1.893 42.555,22.677 93.696,38.914 140.737,42.164 l -1.287,18.644 c -61.147,-4.222 -126.33,-28.22 -175.672,-60.745 1.03,4.922 3.253,10.397 6.885,16.38 7.367,12.14 20.078,25.484 36.23,37.675 39.264,17.838 81.604,32.938 128.62,36.473 l -1.4,18.636 C 150.41,244.06 101.38,224.536 57.41,203.57 c 3.7,19.623 17.285,34.4 38.926,46.805 26.818,15.373 65.26,25.424 105.822,31.328 l 7.457,1.086 0.52,7.517 c 1.074,15.51 4.568,22.832 9.742,31.672 l -16.13,9.438 c -4.93,-8.426 -9.286,-18.45 -11.292,-32.436 -32.304,-5.087 -63.402,-12.616 -89.365,-24.265 -6.44,7.75 -12.784,15.74 -18.994,24.033 16.515,23.758 30.6,43.036 52.78,65.78 l 27.095,-9.467 9.343,-3.25 2.718,9.53 c 15.066,53.052 59.564,93.564 113.595,113.813 48.005,17.99 103.003,19.633 150.063,0.594 C 371.017,438.17 325.073,352.04 303.908,275.873 l -1.125,-4.156 2.376,-3.564 C 348.53,203.283 425.85,148.88 494.25,123.97 V 21.124 Z"
             fill="#ffffff"
             fill-opacity="1"
             id="path251"
             style="fill:#898989;fill-opacity:1" />
        </g>
      </g>
      <text
         xml:space="preserve"
         transform="matrix(0.1231591,0,0,0.1231591,39.523635,182.02767)"
         id="text255"
         style="font-size:85.3333px;line-height:1;font-family:'Nimbus Roman No9 L';-inkscape-font-specification:'Nimbus Roman No9 L';text-decoration-color:#000000;white-space:pre;shape-inside:url(#rect255);display:inline;fill:#ffffff;fill-opacity:1;stroke:#000000;stroke-width:1.39842;stroke-dasharray:none;stroke-opacity:1"
         x="126.81245"
         y="0"><tspan
           x="51.90984"
           y="92.096975"
           id="tspan4"><tspan
             style="font-family:'MS Gothic';-inkscape-font-specification:'MS Gothic';text-align:center;text-anchor:middle"
             id="tspan3">X</tspan></tspan></text>
    </g>
  </g>
</svg>
